<?xml version="1.0" standalone="no"?><!DOCTYPE svg PUBLIC "-//W3C//DTD SVG 1.1//EN" "http://www.w3.org/Graphics/SVG/1.1/DTD/svg11.dtd"><svg t="1484302555435" class="icon" style="" viewBox="0 0 1024 1024" version="1.1" xmlns="http://www.w3.org/2000/svg" p-id="1733" xmlns:xlink="http://www.w3.org/1999/xlink" width="200" height="200"><defs><style type="text/css"></style></defs><path d="M563.2 972.8c0 28.2624-22.9376 51.2-51.2 51.2l0 0c-28.2624 0-51.2-22.9376-51.2-51.2l0-921.6C460.8 22.9376 483.7376 0 512 0l0 0c28.2624 0 51.2 22.9376 51.2 51.2L563.2 972.8z" p-id="1734" fill="#ffffff"></path><path d="M972.8 460.8c28.2624 0 51.2 22.9376 51.2 51.2l0 0c0 28.2624-22.9376 51.2-51.2 51.2l-921.6 0C22.9376 563.2 0 540.2624 0 512l0 0c0-28.2624 22.9376-51.2 51.2-51.2L972.8 460.8z" p-id="1735" fill="#ffffff"></path></svg>