<?xml version="1.0" standalone="no"?><!DOCTYPE svg PUBLIC "-//W3C//DTD SVG 1.1//EN" "http://www.w3.org/Graphics/SVG/1.1/DTD/svg11.dtd"><svg t="1484119607619" class="icon" style="" viewBox="0 0 1024 1024" version="1.1" xmlns="http://www.w3.org/2000/svg" p-id="1991" xmlns:xlink="http://www.w3.org/1999/xlink" width="200" height="200"><defs><style type="text/css"></style></defs><path d="M526.336 105.813333l363.178667 137.216c6.144 3.413333 11.605333 8.192 14.336 14.336l101.034667 180.224c8.874667 16.384 3.413333 36.864-12.970667 46.421333-1.365333 0.682667-2.730667 0.682667-4.096 1.365333L908.629333 525.653333l0 202.752c0 15.018667-9.557333 26.624-21.845333 31.402667l-360.448 152.917333c-10.24 4.778667-21.162667 4.096-30.72 0l0 0-363.178667-154.282667c-11.605333-5.461333-19.114667-17.749333-19.114667-30.037333l0 0L113.322667 525.653333l-81.92-40.96c-17.066667-8.192-23.893333-28.672-15.701333-45.738667l0.682667-1.365333 0 0 101.034667-180.224c4.096-6.826667 10.24-11.605333 16.384-15.018667l361.130667-136.533333C505.856 100.352 516.778667 100.352 526.336 105.813333L526.336 105.813333zM490.837333 834.218667 490.837333 834.218667l0-300.373333-56.661333 100.352c-5.461333 9.557333-17.749333 12.970667-27.306667 7.509333l-0.682667 0L181.589333 529.749333l0 177.493333L490.837333 834.218667 490.837333 834.218667zM490.837333 421.888 490.837333 421.888 490.837333 184.32 208.213333 281.258667 490.837333 421.888 490.837333 421.888zM531.114667 184.32 531.114667 184.32l0 237.568 281.941333-140.629333L531.114667 184.32 531.114667 184.32zM531.114667 534.528 531.114667 534.528l0 300.373333 308.565333-127.658667L839.68 529.066667 615.082667 641.706667 614.4 641.706667c-9.557333 5.461333-22.528 2.048-27.306667-7.509333L531.114667 534.528 531.114667 534.528zM853.333333 305.834667 853.333333 305.834667 539.306667 463.530667l73.728 133.12 314.709333-157.696L853.333333 305.834667 853.333333 305.834667zM165.888 475.818667 165.888 475.818667l242.346667 120.832 74.410667-133.12-314.709333-157.013333L93.525333 439.637333l66.218667 32.768C161.792 473.770667 163.84 474.453333 165.888 475.818667L165.888 475.818667z" p-id="1992" fill="#dbdbdb"></path></svg>