<?xml version="1.0" encoding="UTF-8"?>
<!DOCTYPE svg PUBLIC "-//W3C//DTD SVG 1.1//EN" "http://www.w3.org/Graphics/SVG/1.1/DTD/svg11.dtd">
<!-- Creator: CorelDRAW X6 -->
<svg xmlns="http://www.w3.org/2000/svg" xml:space="preserve" width="150.935mm" height="30.7502mm" version="1.1" style="shape-rendering:geometricPrecision; text-rendering:geometricPrecision; image-rendering:optimizeQuality; fill-rule:evenodd; clip-rule:evenodd"
viewBox="0 0 14718 2999"
 xmlns:xlink="http://www.w3.org/1999/xlink">
 <defs>
  <style type="text/css">
   <![CDATA[
    .fil0 {fill:#fff}
   ]]>
  </style>
 </defs>
 <g id="图层_x0020_1">
  <metadata id="CorelCorpID_0Corel-Layer"/>
  <path class="fil0" d="M1936 191c41,25 81,52 120,82l0 0 0 0c106,82 199,180 275,291l0 0 3 3c-214,98 -364,168 -613,357 -174,132 -196,441 -124,596l101 180c-183,-117 -629,-121 -811,0 4,-9 7,-17 11,-25 -9,5 -18,10 -26,16 165,-383 108,-605 0,-811 274,120 542,140 790,1l215 -414c-25,-19 -51,-37 -78,-54 -150,-90 -326,-142 -515,-142 -555,0 -1004,450 -1004,1004 0,360 190,676 475,853 150,90 326,141 514,141 509,0 929,-378 995,-869 3,-62 15,-148 3,-248 -3,-30 -4,-78 -6,-95 -5,-65 60,-132 129,-132 30,0 57,9 79,24 36,19 61,53 69,94l0 0c8,42 5,75 9,118 2,77 7,205 -2,248 -24,230 -110,442 -241,619l0 0c-229,338 -516,628 -962,968l0 -21 -16 12 -3 -445c-12,0 -25,1 -38,1 -245,0 -473,-69 -667,-189 -369,-221 -617,-626 -617,-1088 0,-700 567,-1268 1268,-1268 245,0 475,70 669,191zm12544 239l0 -237 47 0 56 168c5,16 9,27 11,35 3,-9 7,-21 13,-38l57 -165 42 0 0 237 -30 0 0 -198 -69 198 -28 0 -68 -202 0 202 -30 0zm-256 0l0 -237 105 0c21,0 37,2 48,6 11,4 20,12 26,22 7,11 10,23 10,36 0,17 -5,31 -16,42 -11,12 -28,19 -50,22 8,4 15,8 19,12 9,8 18,19 26,32l41 64 -39 0 -31 -49c-9,-14 -17,-25 -23,-33 -6,-8 -11,-13 -16,-16 -5,-3 -9,-5 -14,-6 -4,-1 -9,-1 -17,-1l-36 0 0 105 -31 0zm31 -132l67 0c14,0 25,-1 34,-4 8,-3 14,-8 18,-14 4,-6 6,-14 6,-21 0,-11 -4,-20 -12,-28 -8,-7 -21,-11 -38,-11l-75 0 0 78zm-317 17c0,-39 11,-70 32,-92 21,-22 48,-33 82,-33 22,0 42,5 59,16 18,10 31,25 40,44 9,19 14,40 14,63 0,24 -5,45 -15,64 -10,19 -23,33 -41,43 -18,10 -37,15 -58,15 -22,0 -42,-5 -60,-16 -18,-11 -31,-25 -40,-44 -9,-19 -14,-38 -14,-59zm32 1c0,28 8,51 23,67 15,16 35,25 58,25 24,0 43,-8 58,-25 15,-17 23,-40 23,-70 0,-19 -3,-36 -10,-50 -7,-14 -16,-25 -29,-33 -13,-8 -27,-12 -42,-12 -22,0 -41,8 -57,23 -16,15 -24,41 -24,76zm-242 115l0 -237 160 0 0 28 -128 0 0 74 111 0 0 28 -111 0 0 107 -31 0zm-162 0l0 -209 -78 0 0 -28 187 0 0 28 -78 0 0 209 -31 0zm-301 0l91 -237 34 0 96 237 -36 0 -27 -72 -100 0 -26 72 -33 0zm68 -97l81 0 -25 -66c-7,-20 -13,-36 -17,-49 -3,15 -8,31 -13,46l-26 69zm-246 97l0 -237 31 0 0 209 116 0 0 28 -148 0zm-238 0l0 -237 89 0c16,0 28,1 36,2 12,2 21,6 29,11 8,5 14,13 19,23 5,10 7,20 7,32 0,20 -6,37 -19,51 -13,14 -36,21 -69,21l-61 0 0 97 -31 0zm31 -124l61 0c20,0 35,-4 43,-11 8,-8 13,-18 13,-32 0,-10 -2,-18 -7,-25 -5,-7 -12,-12 -20,-14 -5,-1 -15,-2 -29,-2l-61 0 0 85zm-362 124l0 -237 32 0 124 186 0 -186 30 0 0 237 -32 0 -124 -186 0 186 -30 0zm-105 0l0 -237 31 0 0 237 -31 0zm-270 0l91 -237 34 0 96 237 -36 0 -27 -72 -100 0 -26 72 -33 0zm68 -97l81 0 -25 -66c-7,-20 -13,-36 -17,-49 -3,15 -8,31 -13,46l-26 69zm-298 97l0 -237 31 0 0 98 122 0 0 -98 31 0 0 237 -31 0 0 -111 -122 0 0 111 -31 0zm-90 -83l31 8c-7,26 -18,45 -35,59 -17,14 -38,20 -62,20 -25,0 -46,-5 -62,-16 -16,-10 -28,-25 -36,-45 -8,-20 -13,-41 -13,-63 0,-25 5,-46 14,-64 9,-18 23,-32 40,-42 17,-10 36,-14 57,-14 24,0 44,6 60,18 16,12 27,29 34,51l-31 7c-5,-17 -13,-30 -24,-38 -10,-8 -24,-12 -39,-12 -18,0 -33,4 -46,13 -12,9 -21,20 -26,35 -5,15 -7,30 -7,45 0,20 3,38 9,53 6,15 15,26 27,34 12,7 26,11 40,11 18,0 32,-5 44,-15 12,-10 20,-25 25,-45zm-408 83l0 -100 -91 -136 38 0 47 72c9,13 17,27 24,40 7,-12 16,-26 26,-42l46 -70 37 0 -95 136 0 100 -31 0zm-246 0l0 -237 31 0 0 209 116 0 0 28 -148 0zm-238 0l0 -237 89 0c16,0 28,1 36,2 12,2 21,6 29,11 8,5 14,13 19,23 5,10 7,20 7,32 0,20 -6,37 -19,51 -13,14 -36,21 -69,21l-61 0 0 97 -31 0zm31 -124l61 0c20,0 35,-4 43,-11 8,-8 13,-18 13,-32 0,-10 -2,-18 -7,-25 -5,-7 -12,-12 -20,-14 -5,-1 -15,-2 -29,-2l-61 0 0 85zm-270 124l0 -237 89 0c16,0 28,1 36,2 12,2 21,6 29,11 8,5 14,13 19,23 5,10 7,20 7,32 0,20 -6,37 -19,51 -13,14 -36,21 -69,21l-61 0 0 97 -31 0zm31 -124l61 0c20,0 35,-4 43,-11 8,-8 13,-18 13,-32 0,-10 -2,-18 -7,-25 -5,-7 -12,-12 -20,-14 -5,-1 -15,-2 -29,-2l-61 0 0 85zm-133 -112l31 0 0 137c0,24 -3,43 -8,57 -5,14 -15,25 -29,34 -14,9 -32,13 -55,13 -22,0 -40,-4 -54,-11 -14,-8 -24,-19 -30,-33 -6,-14 -9,-34 -9,-59l0 -137 31 0 0 137c0,21 2,36 6,45 4,10 10,17 20,23 9,5 21,8 34,8 23,0 39,-5 49,-16 10,-10 15,-31 15,-60l0 -137zm-404 161l29 -3c1,12 5,22 10,29 5,8 13,14 24,19 11,5 23,7 36,7 12,0 22,-2 32,-5 9,-4 16,-8 20,-15 4,-6 7,-13 7,-20 0,-7 -2,-14 -6,-19 -4,-6 -11,-10 -21,-14 -6,-2 -20,-6 -42,-12 -22,-5 -37,-10 -46,-15 -11,-6 -20,-13 -25,-22 -6,-9 -8,-19 -8,-29 0,-12 3,-23 10,-34 7,-10 17,-18 30,-24 13,-5 27,-8 43,-8 18,0 33,3 46,8 13,6 24,14 31,25 7,11 11,23 12,37l-30 2c-2,-15 -7,-26 -16,-34 -9,-8 -23,-11 -41,-11 -19,0 -33,3 -41,10 -9,7 -13,15 -13,25 0,8 3,15 9,21 6,5 22,11 47,17 25,6 43,11 52,15 14,6 24,14 30,24 7,10 10,21 10,34 0,13 -4,24 -11,36 -7,11 -18,20 -31,26 -14,6 -29,9 -46,9 -21,0 -39,-3 -54,-9 -14,-6 -26,-16 -34,-28 -8,-13 -13,-27 -13,-42zm-144 38l0 -65 -64 0 0 -27 64 0 0 -64 27 0 0 64 64 0 0 27 -64 0 0 65 -27 0zm-296 38l0 -237 171 0 0 28 -140 0 0 73 131 0 0 28 -131 0 0 81 145 0 0 28 -177 0zm-6176 978l0 -222 0 -7 6 -4c24,-16 45,-33 63,-48 18,-16 33,-32 46,-47l0 0c35,-44 66,-99 94,-167 28,-68 51,-148 71,-240l2 -11 11 0 193 0 16 0 -3 16c-10,58 -24,119 -43,180 -19,61 -42,124 -69,188l1 1118c0,110 -86,115 -86,115l-107 0 -14 0 0 -14 0 -941c-21,16 -42,31 -65,45 -31,19 -64,36 -98,52l-19 8 0 -21zm4521 -668c80,0 145,65 145,145 0,80 -65,145 -145,145 -80,0 -145,-65 -145,-145 0,-80 65,-145 145,-145zm2653 1144c-38,-50 -123,-46 -145,-46 2,0 4,-1 6,-3l-8 0c26,-6 65,-108 24,-166 -16,-22 -45,-37 -90,-37 -123,-1 -158,116 -121,170 21,27 62,36 121,1 0,0 -1,2 -2,5 1,-1 3,-1 4,-2 0,0 -49,132 -199,110 -31,-5 -57,-22 -76,-49 -91,-120 -40,-427 275,-427 119,0 186,46 224,98 48,64 50,140 50,153 12,3 73,22 118,86 31,42 55,104 51,195 -7,185 -158,304 -377,304l-72 0 0 0 -24 0 -418 0 -553 0c-36,0 -70,-4 -101,-13l0 0c-31,-9 -60,-23 -85,-40 -22,-15 -40,-33 -54,-53l0 0 0 0c-7,-9 -13,-19 -18,-29 -16,-31 -23,-66 -23,-105 0,-13 1,-28 4,-44 2,-16 6,-33 11,-52l0 0 145 -564 -176 0 -14 0 0 -14 0 -170 0 -14 14 0 1723 0 14 0 0 14 0 71c0,115 -120,113 -145,113l-1205 0 -147 568 0 0c-2,9 -4,18 -5,27 -1,8 -2,16 -2,24 0,15 3,28 9,39 1,2 2,4 3,5 5,7 12,13 20,17l0 0c7,4 14,7 21,9 7,2 13,3 20,3l56 0 985 0c74,-9 174,-5 179,-122 1,-27 -5,-47 -16,-62zm-6681 -207l0 -176 0 -14 14 0 194 0 0 -438 -194 0 -14 0 0 -14 0 -176 0 -14 14 0 194 0 0 -170 0 -14 14 0 91 0c15,0 100,10 100,99l0 85 450 0 0 -170 0 -14 14 0c23,0 74,0 101,1 57,0 102,44 90,87l0 96 177 0 14 0 0 14c0,175 -76,190 -112,190l-79 0 0 438 177 0 14 0 0 14 0 176 0 14 -14 0 -1232 0 -14 0 0 -14zm414 -190l450 0 0 -438 -450 0 0 438zm-399 778l0 -173 0 -13 13 0c16,0 31,-3 44,-7l0 0c13,-4 23,-11 33,-20l0 0c7,-7 13,-14 18,-20l0 0c5,-7 8,-13 10,-19l0 0c4,-12 6,-26 9,-43 2,-17 4,-37 5,-60l0 0c1,-15 2,-31 3,-48 1,-17 3,-36 5,-58l1 -12 12 0 167 0 14 0 0 14c-1,63 -3,116 -7,159 -4,44 -10,79 -17,103l0 0c-13,42 -33,78 -61,109 -27,31 -62,56 -103,75l0 0c-15,7 -34,13 -57,18 -22,5 -47,8 -75,10l-15 1 0 -15zm915 -475l173 0 13 0 0 13c2,58 6,106 11,143l0 0c5,35 11,60 19,74 10,19 24,33 40,42 17,10 37,15 61,16l13 0 0 13 0 173 0 15 -15 -1c-73,-5 -133,-25 -183,-60 -49,-35 -87,-84 -112,-147l0 0c-10,-24 -18,-58 -23,-103 -6,-44 -9,-99 -11,-164l0 -14 14 0zm330 490l0 -201 120 -3 13 0c12,0 23,-2 31,-6 8,-3 14,-8 18,-13l0 0c6,-9 11,-20 14,-36 4,-16 5,-36 5,-59l0 -894c0,-43 6,-96 18,-130 12,-34 30,-64 54,-88l0 0c24,-24 50,-42 77,-54 28,-12 57,-18 87,-18l541 0 0 -122 0 -14 14 0 83 0c22,0 105,10 105,102l0 34 687 0 14 0 2 14 0 76c0,137 -147,112 -165,112l-1172 0c-30,0 -54,1 -72,4 -17,3 -28,6 -34,11l0 0c-9,6 -16,13 -22,21 -6,8 -11,31 -14,40l0 0c-1,2 -2,8 -2,18 -1,10 -1,25 -1,43l0 787c0,43 -2,81 -6,114 -4,34 -10,62 -18,86l0 0c-11,32 -26,60 -46,84 -20,24 -45,44 -74,60l0 0c-17,9 -35,15 -56,20 -20,5 -43,8 -68,8l-14 1 -120 2zm490 -17l0 -174 0 -14 14 0 1365 0 14 0 0 14 0 76c0,122 -134,111 -134,111l-1244 0 -14 0 0 -14zm117 -1132l80 0c27,0 106,8 106,132l0 437c0,12 1,22 2,30 1,7 3,11 5,14l0 0c1,2 4,4 7,5l0 0c5,2 11,4 18,5l12 2 0 12 0 173 0 15 -15 -1c-33,-3 -62,-9 -87,-19 -26,-10 -49,-24 -67,-42l0 0c-12,-12 -23,-24 -32,-37 -9,-13 -17,-26 -23,-39l0 0c-6,-15 -11,-35 -14,-59 -3,-24 -5,-53 -5,-86l0 -527 0 -14 14 0zm488 0l78 0c29,0 108,5 108,131l0 436c0,13 1,23 2,32 1,7 3,12 5,15l0 0c1,2 4,3 8,5l0 0c5,3 12,5 20,7l10 3 0 10 0 171 0 14 -14 0c-28,-1 -54,-6 -78,-14 -24,-9 -46,-21 -66,-37l0 0c-14,-11 -26,-24 -37,-37 -10,-13 -19,-27 -26,-41l0 0c-8,-16 -13,-35 -17,-57 -4,-22 -6,-47 -6,-74l0 -549 0 -14 14 0zm473 810l0 -171 0 -10 10 -3c8,-2 15,-5 20,-7 4,-2 7,-4 9,-6 2,-2 3,-6 4,-12 1,-7 2,-16 2,-26l0 -446c0,-33 -17,-130 92,-130l94 0 14 0 0 14 0 562c0,42 -7,80 -21,113 -14,33 -36,61 -64,84l0 0c-18,14 -39,26 -63,34l0 0c-24,8 -51,14 -81,16l-15 1 0 -15zm446 -208l0 -172 0 -14 14 0 162 0 0 -182 -162 0 -14 0 0 -14 0 -176 0 -14 14 0 526 0 14 0 0 14 0 176 0 14 -14 0 -164 0 0 182 164 0 14 0 0 14 0 172 0 14 -14 0 -164 0 0 273c0,14 1,25 3,34 2,8 4,13 8,16l0 0c4,4 10,7 16,9l0 0c7,2 15,4 24,4l96 0 14 0 0 14 0 172 0 14 -14 0 -167 0c-26,0 -50,-4 -71,-12 -21,-8 -40,-20 -57,-36l0 0c-17,-17 -30,-37 -39,-62 -8,-24 -13,-51 -13,-82l0 -345 -162 0 -14 0 0 -14zm0 -601l0 -173 0 -11 10 -3c16,-4 30,-11 41,-20 11,-9 20,-21 26,-36l0 0c11,-25 24,-65 38,-118l0 0c6,-23 11,-42 14,-54 4,-14 7,-27 10,-37l3 -10 10 0 178 0 18 0 -4 17 -27 106 225 0 14 0 0 14 0 125c0,64 -70,63 -80,63l-221 0c-12,20 -24,36 -35,51 -13,16 -26,29 -37,39l0 0c-24,18 -49,32 -77,43 -28,10 -57,17 -89,20l-15 1 0 -15zm536 1151l0 -200 55 3 11 -2c39,-7 68,-20 87,-39 18,-19 28,-44 28,-76l0 -623c0,-6 -1,-12 -4,-19 -3,-7 -7,-14 -12,-22 -5,-7 -11,-12 -17,-16 -6,-3 -13,-5 -20,-5l-60 0 -14 0 0 -14 0 -174 0 -14 14 0 74 0c78,0 138,18 178,55 40,37 61,91 61,164l0 636c0,26 3,49 9,68 5,18 14,32 24,43l0 0c12,11 24,20 36,25 12,5 23,8 35,8l262 0 0 -220 -280 0 -14 0 0 -14 0 -174 0 -14 14 0 280 0 0 -170 -93 0c-69,0 -121,-14 -157,-43 -36,-30 -54,-73 -54,-131 0,-10 1,-19 2,-29 1,-9 3,-18 5,-26l0 0 86 -297 -81 0 -14 0 0 -14 0 -174 0 -14 14 0 139 0 23 -84 3 -10 10 0 181 0 18 0 -5 18 -23 76 405 0 14 0 0 14 0 75c0,144 -115,113 -115,113l-362 0 -70 230 0 0c-7,22 -12,40 -15,53 -3,12 -5,21 -5,24 0,5 2,9 7,12 7,4 18,6 33,6l54 0 0 -150 0 -14 14 0 172 0 14 0 0 14 0 150 259 0 14 0 0 14 0 84c0,111 -101,104 -101,104l-172 0 0 170 259 0 14 0 0 14 0 109c0,88 -92,78 -92,78l-181 0 0 220 256 0 14 0 0 14 0 59c0,132 -169,129 -169,129l-553 0c-41,0 -80,-8 -117,-23 -33,-14 -64,-35 -93,-61 -18,15 -35,28 -52,38 -20,13 -39,23 -57,29l0 0c-14,5 -30,9 -48,12 -17,3 -36,4 -57,5l-14 0 -55 0zm1381 -1431l0 -167 0 -14 14 0 1661 0 14 0 0 14 0 72c0,126 -126,110 -136,110l-1535 0 -17 -2 0 -14zm1850 940l0 -176 0 -14 14 0 766 0 0 -741 -766 0 -14 0 0 -14 0 -174 0 -14 14 0 1733 0 14 0 0 14 0 81c0,106 -118,107 -129,107l-651 0 0 741 767 0 14 0 0 14 0 85c0,106 -107,105 -139,105l-642 0 0 461 0 14 -14 0 -172 0 -14 0 0 -14 0 -461 -766 0 -14 0 0 -14zm152 -870l174 0 12 0 1 12 25 233c4,41 10,74 17,100 7,24 15,42 24,52l0 0c8,9 19,16 32,22 14,6 30,9 49,11l12 1 0 12 0 173 0 15 -15 -1c-46,-3 -88,-13 -125,-30 -38,-16 -71,-39 -100,-68l0 0c-24,-25 -43,-54 -58,-88 -14,-33 -24,-70 -28,-111l-35 -318 -2 -15 15 0zm1109 615l0 -171 0 -12 12 -2c22,-4 41,-9 56,-15 14,-6 24,-13 31,-22l0 0c8,-11 16,-28 22,-48 6,-22 11,-49 15,-81l27 -252 1 -12 12 0 174 0 15 0 -2 15 -30 278c-4,36 -9,68 -15,95l0 0c-6,27 -13,49 -21,67l0 0c-13,31 -32,58 -57,82 -24,24 -53,44 -88,61l0 0c-19,9 -41,17 -64,22 -23,5 -48,8 -74,9l-14 0 0 -14zm827 -872l204 0 20 0 -7 18 -156 418 0 0c-2,6 -4,13 -6,19 -1,6 -2,13 -2,19 0,14 5,24 15,31l0 0c12,8 30,12 56,12l1093 0c33,0 58,-6 73,-18 15,-11 22,-29 22,-52 0,-4 0,-9 -1,-14l0 0c-1,-5 -2,-11 -4,-17l0 0 -71 -224 -6 -18 19 0 177 0 10 0 3 10c5,17 11,37 19,61 6,20 13,46 23,79l0 0c14,44 25,80 32,109 7,30 11,52 11,67 0,36 -10,69 -29,99 -19,29 -47,55 -84,77l0 0c-26,15 -58,26 -97,34 -38,7 -83,11 -134,11l-1082 0c-48,0 -89,-3 -123,-10 -35,-7 -62,-18 -83,-32l0 0c-24,-17 -42,-38 -55,-62 -12,-24 -18,-52 -18,-82 0,-18 2,-37 7,-59 4,-21 11,-44 19,-68l0 0 142 -397 3 -9 10 0zm-175 1396l0 -358c0,-66 18,-115 53,-149 35,-33 87,-50 155,-50l1264 0c37,0 70,4 98,11 29,7 52,19 70,33l0 0c12,11 23,22 31,34 8,12 15,25 19,39l0 0c2,9 4,20 5,33 1,13 2,29 2,48l0 390c0,26 -3,49 -8,69 -6,21 -14,38 -26,52l0 0c-12,15 -25,27 -40,37 -15,10 -32,17 -50,22 -9,2 -21,4 -35,5 -14,1 -30,2 -49,2l-1278 0c-44,0 -81,-6 -112,-19 -32,-13 -57,-33 -76,-59l0 0c-8,-12 -14,-31 -18,-55 -4,-23 -6,-52 -6,-86zm247 15l1206 0c10,0 19,-1 25,-4 6,-2 10,-5 14,-9 1,-2 3,-6 4,-11 1,-6 2,-15 2,-25l0 -279c0,-14 -3,-25 -10,-31 -7,-6 -17,-10 -32,-10l-1217 0c-14,0 -24,3 -31,9l0 0c-6,6 -9,15 -9,28l0 299c0,11 3,19 10,24 8,6 20,9 37,9zm-10333 -1607l0 164 165 0c24,0 46,12 60,30 15,14 24,33 24,55l0 0c0,42 -34,76 -76,76l-173 0 0 173c0,42 -34,76 -76,76l0 0c-24,0 -46,-12 -60,-30 -15,-14 -24,-33 -24,-55l0 -164 -165 0c-24,0 -46,-12 -60,-30 -15,-14 -24,-33 -24,-55l0 0c0,-42 34,-76 76,-76l173 0 0 -173c0,-42 34,-76 76,-76l0 0c24,0 46,12 60,30 15,14 24,33 24,55z"/>
 </g>
</svg>
