<?xml version="1.0" standalone="no"?><!DOCTYPE svg PUBLIC "-//W3C//DTD SVG 1.1//EN" "http://www.w3.org/Graphics/SVG/1.1/DTD/svg11.dtd"><svg t="1483424962185" class="icon" style="" viewBox="0 0 1024 1024" version="1.1" xmlns="http://www.w3.org/2000/svg" p-id="9492" xmlns:xlink="http://www.w3.org/1999/xlink" width="200" height="200"><defs><style type="text/css"></style></defs><path d="M925.632 927.168c-27.264 0-49.376 21.696-49.376 48.384s22.112 48.416 49.376 48.416 49.408-21.728 49.408-48.416c0-26.72-22.112-48.384-49.408-48.384zM656.064 547.968c-45.408-14.56-93.728-22.688-144.128-22.688-255.68 0-462.976 203.104-462.976 453.664l99.232 0c-0.032-1.216-0.192-2.368-0.192-3.584 0-198.496 162.944-359.392 363.936-359.392 0.256 0 0.512 0.064 0.768 0.064l0-68.064 143.328 0zM975.04 978.944c0-125.056-51.68-238.304-135.264-320.384l-67.392 65.984c63.968 64.768 103.552 153.184 103.552 250.816 0 1.216-0.192 2.368-0.192 3.584l99.264 0zM511.968 0c-174.976 0-316.768 138.944-316.768 310.4s141.792 310.4 316.768 310.4c175.008 0 316.832-138.976 316.832-310.4s-141.856-310.4-316.832-310.4zM511.968 524.864c-121.12 0-219.296-96.224-219.296-214.912s98.176-214.912 219.296-214.912c121.184 0 219.36 96.192 219.36 214.912s-98.176 214.912-219.36 214.912zM805.664 644.672c-26.208 0-47.488 20.864-47.488 46.496 0 25.76 21.28 46.592 47.488 46.592 26.272 0 47.52-20.864 47.52-46.592 0-25.696-21.248-46.496-47.52-46.496zM98.688 927.168c-27.264 0-49.344 21.696-49.344 48.384s22.08 48.416 49.344 48.416 49.408-21.728 49.408-48.416c0-26.72-22.112-48.384-49.408-48.384z" p-id="9493" fill="#ffffff"></path></svg>